# xmcd
#
# Track frame offsets:
#	150
#	15823
#	30676
#	51999
#	73911
#	103090
#	128702
#	154989
#	183376
#	210019
#	238170
#	262487
#	281862
#	302486
#	329919
#
# Disc length: 4660 seconds
#
# Revision: 0
# Processed by: cddbd v1.5PL3 Copyright (c) Steve Scherf et al.
# Submitted via: audiograbber 1.83.01
#
DISCID=e112320f
DTITLE=Various Artist - Ночной клуб 11. (Mix) (2004)
DYEAR=1900
DGENRE=
TTITLE0=Tube and Berger. - Geradeaus. (Radio Edit)
TTITLE1=Bradski and Jenski feat. Eden. - S.O.S. (Original Radio Edit)
TTITLE2=Love Beginners. - First Time. (Callea and Rispoli Club Mix)
TTITLE3=Dj Dado feat. Dr. Feelix. - Theme From The Warriors. (Original Mix)
TTITLE4=Vibe Residents. - Mike It Funky.
TTITLE5=Powers That Be vs. Roland Clarke. - Planet Rock. (Original Mix)
TTITLE6=Sulle and Isabel Fructuoso. - No Pares. (Swing Dub)
TTITLE7=Jose Boquerones. - Motor.
TTITLE8=Moonbootica. - Roll The Dice.
TTITLE9=Melvin Reese. - Strong Resemblance.
TTITLE10=Gum Base. - Real. (Dub Mix)
TTITLE11=Klub Rockerz. - Party Nation.
TTITLE12=Radikals Djs. - If Tomorrow Ner Comes. (Club NRG Mix)
TTITLE13=Dj Rad. - My World My Beat.
TTITLE14=Special D. - To The Beat. (Club Mix)
EXTD=
EXTT0=
EXTT1=
EXTT2=
EXTT3=
EXTT4=
EXTT5=
EXTT6=
EXTT7=
EXTT8=
EXTT9=
EXTT10=
EXTT11=
EXTT12=
EXTT13=
EXTT14=
PLAYORDER=
